<svg width="52" height="18" viewBox="0 0 52 18" fill="none" xmlns="http://www.w3.org/2000/svg">
<path d="M1.93892 16.8636C1.71686 16.8636 1.51468 16.8454 1.33239 16.8089C1.15009 16.7758 1.0142 16.7393 0.924716 16.6996L1.28267 15.4815C1.55445 15.5545 1.7964 15.5859 2.00852 15.576C2.22064 15.5661 2.40791 15.4865 2.57031 15.3374C2.73603 15.1882 2.88187 14.9446 3.00781 14.6065L3.19176 14.0994L0.397727 6.36364H1.98864L3.92259 12.2898H4.00213L5.93608 6.36364H7.53196L4.38494 15.0192C4.23911 15.4169 4.0535 15.7533 3.82812 16.0284C3.60275 16.3068 3.33428 16.5156 3.02273 16.6548C2.71117 16.794 2.34991 16.8636 1.93892 16.8636ZM10.5125 14.169C10.0286 14.169 9.59113 14.0795 9.20003 13.9006C8.80893 13.7183 8.49903 13.4548 8.27034 13.1101C8.04496 12.7654 7.93227 12.3428 7.93227 11.8423C7.93227 11.4115 8.01513 11.0568 8.18085 10.7784C8.34657 10.5 8.57029 10.2796 8.85202 10.1172C9.13374 9.95478 9.44861 9.83215 9.79662 9.74929C10.1446 9.66643 10.4993 9.60346 10.8605 9.56037C11.3179 9.50734 11.6891 9.46425 11.9742 9.43111C12.2592 9.39465 12.4664 9.33665 12.5956 9.2571C12.7249 9.17756 12.7895 9.0483 12.7895 8.86932V8.83452C12.7895 8.40033 12.6669 8.06392 12.4216 7.82528C12.1797 7.58665 11.8184 7.46733 11.3378 7.46733C10.8373 7.46733 10.4429 7.57836 10.1546 7.80043C9.86954 8.01918 9.67233 8.26278 9.56295 8.53125L8.16594 8.21307C8.33166 7.74905 8.57361 7.37453 8.89179 7.08949C9.21329 6.80114 9.58284 6.59233 10.0005 6.46307C10.4181 6.33049 10.8572 6.2642 11.3179 6.2642C11.6229 6.2642 11.946 6.30066 12.2874 6.37358C12.6321 6.44318 12.9536 6.57244 13.2519 6.76136C13.5535 6.95028 13.8004 7.22041 13.9926 7.57173C14.1849 7.91974 14.281 8.37216 14.281 8.92898V14H12.8293V12.956H12.7696C12.6735 13.1482 12.5293 13.3371 12.3371 13.5227C12.1449 13.7083 11.8979 13.8625 11.5963 13.9851C11.2947 14.1077 10.9335 14.169 10.5125 14.169ZM10.8357 12.9759C11.2467 12.9759 11.598 12.8946 11.8897 12.7322C12.1846 12.5698 12.4084 12.3577 12.5608 12.0959C12.7166 11.8307 12.7945 11.5473 12.7945 11.2457V10.2614C12.7415 10.3144 12.6387 10.3641 12.4862 10.4105C12.3371 10.4536 12.1664 10.4917 11.9742 10.5249C11.7819 10.5547 11.5947 10.5829 11.4124 10.6094C11.2301 10.6326 11.0776 10.6525 10.955 10.669C10.6666 10.7055 10.4032 10.7668 10.1645 10.853C9.9292 10.9392 9.74027 11.0634 9.59776 11.2259C9.45855 11.3849 9.38895 11.5971 9.38895 11.8622C9.38895 12.2301 9.52484 12.5085 9.79662 12.6974C10.0684 12.883 10.4148 12.9759 10.8357 12.9759ZM19.0575 14.1541C18.3184 14.1541 17.6821 13.9867 17.1485 13.652C16.6182 13.3139 16.2105 12.8482 15.9254 12.255C15.6404 11.6617 15.4979 10.9822 15.4979 10.2166C15.4979 9.44105 15.6437 8.75663 15.9354 8.16335C16.2271 7.56676 16.638 7.10109 17.1683 6.76633C17.6986 6.43158 18.3234 6.2642 19.0426 6.2642C19.6227 6.2642 20.1397 6.37192 20.5938 6.58736C21.0478 6.79948 21.4141 7.09777 21.6925 7.48224C21.9742 7.86671 22.1416 8.31581 22.1946 8.82955H20.7479C20.6683 8.47159 20.4861 8.16335 20.201 7.90483C19.9193 7.64631 19.5415 7.51705 19.0675 7.51705C18.6532 7.51705 18.2903 7.62642 17.9787 7.84517C17.6705 8.06061 17.4302 8.36884 17.2578 8.76989C17.0855 9.16761 16.9993 9.63826 16.9993 10.1818C16.9993 10.7386 17.0838 11.2192 17.2529 11.6236C17.4219 12.0279 17.6605 12.3411 17.9688 12.5632C18.2803 12.7853 18.6466 12.8963 19.0675 12.8963C19.3492 12.8963 19.6044 12.8449 19.8331 12.7422C20.0651 12.6361 20.259 12.4853 20.4148 12.2898C20.5739 12.0942 20.6849 11.8589 20.7479 11.5838H22.1946C22.1416 12.0777 21.9808 12.5185 21.7124 12.9062C21.4439 13.294 21.0843 13.599 20.6335 13.821C20.1861 14.0431 19.6608 14.1541 19.0575 14.1541ZM24.8508 9.46591V14H23.3643V3.81818H24.8309V7.60653H24.9254C25.1043 7.19555 25.3778 6.86908 25.7457 6.62713C26.1136 6.38518 26.5942 6.2642 27.1874 6.2642C27.7111 6.2642 28.1685 6.37192 28.5596 6.58736C28.954 6.80279 29.2589 7.12429 29.4744 7.55185C29.6931 7.97609 29.8025 8.50639 29.8025 9.14276V14H28.316V9.32173C28.316 8.7616 28.1718 8.32741 27.8835 8.01918C27.5951 7.70762 27.1941 7.55185 26.6803 7.55185C26.329 7.55185 26.0141 7.62642 25.7357 7.77557C25.4606 7.92472 25.2436 8.14347 25.0845 8.43182C24.9287 8.71686 24.8508 9.06155 24.8508 9.46591ZM34.9308 6.36364V7.55682H30.7596V6.36364H34.9308ZM31.8782 4.53409H33.3647V11.7578C33.3647 12.0462 33.4078 12.2633 33.494 12.4091C33.5802 12.5516 33.6912 12.6494 33.8271 12.7024C33.9663 12.7521 34.1171 12.777 34.2795 12.777C34.3988 12.777 34.5032 12.7687 34.5927 12.7521C34.6822 12.7356 34.7518 12.7223 34.8015 12.7124L35.07 13.9403C34.9838 13.9735 34.8612 14.0066 34.7021 14.0398C34.543 14.0762 34.3441 14.0961 34.1055 14.0994C33.7144 14.1061 33.3498 14.0365 33.0118 13.8906C32.6737 13.7448 32.4003 13.5194 32.1914 13.2145C31.9826 12.9096 31.8782 12.5268 31.8782 12.0661V4.53409ZM36.1552 6.36364H37.6417V14.4972C37.6417 15.0076 37.5489 15.4384 37.3632 15.7898C37.181 16.1411 36.9092 16.4079 36.5479 16.5902C36.19 16.7725 35.7475 16.8636 35.2205 16.8636C35.1675 16.8636 35.1177 16.8636 35.0713 16.8636C35.0216 16.8636 34.9703 16.862 34.9172 16.8587V15.581C34.9636 15.581 35.0051 15.581 35.0415 15.581C35.0747 15.581 35.1128 15.581 35.1559 15.581C35.5072 15.581 35.7607 15.4865 35.9165 15.2976C36.0756 15.112 36.1552 14.8419 36.1552 14.4872V6.36364ZM36.8909 5.18537C36.6324 5.18537 36.4104 5.09919 36.2248 4.92685C36.0425 4.75118 35.9513 4.54238 35.9513 4.30043C35.9513 4.05516 36.0425 3.84635 36.2248 3.67401C36.4104 3.49834 36.6324 3.41051 36.8909 3.41051C37.1495 3.41051 37.3699 3.49834 37.5522 3.67401C37.7378 3.84635 37.8306 4.05516 37.8306 4.30043C37.8306 4.54238 37.7378 4.75118 37.5522 4.92685C37.3699 5.09919 37.1495 5.18537 36.8909 5.18537ZM42.5127 14.1541C41.7603 14.1541 41.1123 13.9934 40.5688 13.6719C40.0285 13.3471 39.6109 12.8913 39.3159 12.3047C39.0243 11.7147 38.8784 11.0237 38.8784 10.2315C38.8784 9.44934 39.0243 8.75994 39.3159 8.16335C39.6109 7.56676 40.0219 7.10109 40.5489 6.76633C41.0792 6.43158 41.699 6.2642 42.4083 6.2642C42.8391 6.2642 43.2568 6.33546 43.6611 6.47798C44.0655 6.6205 44.4284 6.84422 44.7499 7.14915C45.0714 7.45407 45.3249 7.85014 45.5105 8.33736C45.6961 8.82126 45.7889 9.40956 45.7889 10.1023V10.6293H39.7186V9.51562H44.3323C44.3323 9.12453 44.2527 8.77817 44.0936 8.47656C43.9345 8.17164 43.7108 7.93134 43.4225 7.75568C43.1374 7.58002 42.8027 7.49219 42.4182 7.49219C42.0006 7.49219 41.636 7.59493 41.3245 7.80043C41.0162 8.0026 40.7776 8.26776 40.6086 8.59588C40.4428 8.92069 40.36 9.27367 40.36 9.65483V10.5249C40.36 11.0353 40.4495 11.4695 40.6284 11.8274C40.8107 12.1854 41.0643 12.4588 41.3891 12.6477C41.7139 12.8333 42.0934 12.9261 42.5276 12.9261C42.8093 12.9261 43.0662 12.8864 43.2982 12.8068C43.5302 12.724 43.7307 12.6013 43.8997 12.4389C44.0688 12.2765 44.198 12.076 44.2875 11.8374L45.6945 12.0909C45.5818 12.5052 45.3796 12.8681 45.088 13.1797C44.7996 13.4879 44.4367 13.7282 43.9992 13.9006C43.565 14.0696 43.0695 14.1541 42.5127 14.1541ZM50.5829 6.36364V7.55682H46.4117V6.36364H50.5829ZM47.5303 4.53409H49.0169V11.7578C49.0169 12.0462 49.0599 12.2633 49.1461 12.4091C49.2323 12.5516 49.3433 12.6494 49.4792 12.7024C49.6184 12.7521 49.7692 12.777 49.9316 12.777C50.0509 12.777 50.1553 12.7687 50.2448 12.7521C50.3343 12.7356 50.4039 12.7223 50.4536 12.7124L50.7221 13.9403C50.6359 13.9735 50.5133 14.0066 50.3542 14.0398C50.1951 14.0762 49.9963 14.0961 49.7576 14.0994C49.3665 14.1061 49.0019 14.0365 48.6639 13.8906C48.3258 13.7448 48.0524 13.5194 47.8436 13.2145C47.6348 12.9096 47.5303 12.5268 47.5303 12.0661V4.53409Z" fill="#1B414B"/>
</svg>
